<?xml version="1.0" standalone="no"?>
<!DOCTYPE svg PUBLIC "-//W3C//DTD SVG 20010904//EN"
 "http://www.w3.org/TR/2001/REC-SVG-20010904/DTD/svg10.dtd">
<svg version="1.0" xmlns="http://www.w3.org/2000/svg"
 width="225.000000pt" height="225.000000pt" viewBox="0 0 225.000000 225.000000"
 preserveAspectRatio="xMidYMid meet">
<metadata>
Created by potrace 1.11, written by Peter Selinger 2001-2013
</metadata>
<g transform="translate(0.000000,225.000000) scale(0.100000,-0.100000)"
fill="#000000" stroke="none">
<path d="M1794 1920 c-57 -23 -124 -136 -124 -209 l0 -28 -80 28 c-145 51
-234 64 -465 64 -184 0 -223 -3 -314 -23 -58 -13 -133 -34 -167 -46 l-62 -23
-7 36 c-29 158 -148 244 -245 179 -60 -42 -75 -71 -75 -151 1 -73 22 -133 64
-181 15 -17 14 -20 -18 -45 -67 -51 -76 -59 -70 -65 6 -6 112 69 117 84 2 5
-8 26 -21 47 -31 49 -57 124 -57 164 0 43 23 92 56 118 35 28 94 24 129 -9 40
-37 76 -116 78 -170 1 -27 3 -50 5 -50 2 0 33 13 71 29 180 76 465 109 706 80
130 -15 320 -65 350 -91 18 -16 22 -8 28 50 9 104 73 193 141 195 43 1 72 -23
98 -80 15 -35 17 -49 8 -88 -14 -62 -48 -134 -78 -167 l-26 -28 32 0 c22 0 47
-13 87 -46 31 -25 60 -43 63 -39 4 4 -11 21 -32 38 -89 71 -83 57 -43 115 59
86 68 188 23 257 -32 49 -118 77 -172 55z"/>
<path d="M757 1092 c-24 -26 -22 -79 3 -92 48 -26 88 28 59 79 -18 33 -40 37
-62 13z"/>
<path d="M1472 1098 c-7 -7 -12 -29 -12 -50 0 -28 5 -40 21 -48 42 -23 76 40
49 91 -12 21 -40 25 -58 7z"/>
<path d="M1082 1010 c-19 -4 -39 -13 -45 -20 -9 -9 -7 -11 8 -7 55 15 84 17
130 8 55 -10 71 -7 34 7 -41 15 -93 20 -127 12z"/>
<path d="M1005 902 c-55 -19 -79 -57 -59 -90 23 -36 65 -47 186 -47 109 0 118
1 142 24 45 42 30 99 -31 122 -40 15 -183 10 -238 -9z"/>
<path d="M1505 858 c59 -69 91 -163 81 -246 -8 -65 -50 -162 -92 -212 -56 -66
-58 -75 -5 -25 31 30 65 76 84 115 28 57 32 74 32 150 0 98 -26 168 -87 233
-54 57 -66 44 -13 -15z"/>
<path d="M1093 360 c-13 -5 -23 -11 -23 -13 0 -3 37 -5 81 -5 51 0 78 3 72 9
-14 14 -105 20 -130 9z"/>
</g>
</svg>
