<?xml version="1.0" standalone="no"?>
<!DOCTYPE svg PUBLIC "-//W3C//DTD SVG 20010904//EN"
 "http://www.w3.org/TR/2001/REC-SVG-20010904/DTD/svg10.dtd">
<svg version="1.0" xmlns="http://www.w3.org/2000/svg"
 width="564.000000pt" height="564.000000pt" viewBox="0 0 564.000000 564.000000"
 preserveAspectRatio="xMidYMid meet">
<metadata>
Created by potrace 1.11, written by Peter Selinger 2001-2013
</metadata>
<g transform="translate(0.000000,564.000000) scale(0.100000,-0.100000)"
fill="#000000" stroke="none">
<path d="M2835 5630 c-27 -5 -79 -11 -115 -14 -206 -17 -402 -85 -432 -151 -9
-19 -7 -29 6 -50 10 -14 24 -29 32 -32 20 -8 17 -23 -5 -23 -36 0 -169 -62
-256 -118 -67 -44 -159 -145 -193 -211 -58 -114 -36 -239 52 -286 19 -10 33
-22 30 -26 -2 -4 -28 -20 -57 -35 -88 -44 -297 -274 -297 -326 0 -8 -4 -18 -9
-23 -10 -11 -36 -84 -58 -165 -8 -30 -16 -98 -16 -152 -2 -94 -1 -97 29 -135
27 -34 37 -38 81 -41 37 -2 55 2 74 17 39 30 76 117 83 196 17 188 21 197 128
258 46 25 88 35 88 20 0 -16 -25 -73 -32 -73 -4 0 -8 -7 -8 -15 0 -8 -12 -41
-28 -72 -61 -127 -84 -281 -62 -408 23 -130 70 -202 163 -245 47 -22 49 -22
86 -5 89 40 105 156 49 357 -11 39 -6 79 15 100 6 7 25 30 40 51 30 39 57 49
57 20 0 -10 -9 -49 -20 -88 -29 -103 -25 -162 13 -245 28 -59 101 -110 157
-110 73 0 116 34 139 110 35 116 99 199 186 239 73 34 123 45 200 44 141 -1
313 -64 478 -174 71 -48 267 -242 267 -264 0 -8 4 -15 9 -15 11 0 100 -180
113 -228 41 -160 44 -344 8 -477 -4 -16 -13 -57 -20 -90 -7 -33 -15 -67 -18
-75 -3 -8 -7 -24 -9 -35 -2 -11 -7 -31 -12 -45 -5 -14 -14 -45 -21 -70 -7 -25
-17 -56 -22 -70 -11 -26 -18 -43 -39 -99 -15 -40 -46 -71 -71 -71 -10 0 -18
-4 -18 -10 0 -5 -9 -10 -19 -10 -11 0 -22 -4 -25 -9 -3 -4 -29 -16 -58 -25
-43 -13 -62 -14 -103 -5 -154 33 -245 45 -433 55 -101 6 -162 -5 -162 -27 0
-5 -9 -9 -20 -9 -11 0 -20 -4 -20 -8 0 -10 -123 -72 -144 -72 -9 0 -16 -4 -16
-10 0 -13 -87 -13 -142 0 -24 5 -70 15 -103 21 -33 7 -100 22 -150 35 -49 13
-101 26 -115 29 -14 4 -35 11 -46 17 -34 16 -59 6 -62 -25 -3 -26 -25 -37 -37
-17 -3 5 -21 10 -40 10 -19 0 -37 5 -40 10 -3 6 -26 10 -50 10 -24 0 -47 5
-50 10 -8 13 -105 13 -105 0 0 -5 -7 -10 -15 -10 -9 0 -25 -9 -37 -20 -12 -11
-28 -20 -35 -20 -7 0 -13 -4 -13 -10 0 -5 -9 -10 -20 -10 -11 0 -20 -3 -20 -7
0 -9 -49 -33 -67 -33 -7 0 -13 -4 -13 -10 0 -5 -9 -10 -19 -10 -11 0 -23 -4
-26 -10 -3 -5 -17 -10 -30 -10 -13 0 -25 -6 -28 -12 -3 -10 -15 -7 -46 10 -24
12 -51 22 -61 22 -11 0 -22 5 -25 10 -3 6 -15 10 -26 10 -10 0 -19 3 -19 8 0
4 -35 18 -78 30 -42 13 -84 27 -93 32 -26 14 -118 15 -131 2 -7 -7 -18 -12
-25 -12 -7 0 -13 -4 -13 -8 0 -5 -24 -19 -52 -31 -29 -13 -61 -27 -70 -32 -10
-5 -27 -9 -37 -9 -11 0 -22 -4 -25 -9 -3 -5 -23 -11 -43 -15 -21 -3 -67 -10
-103 -17 -36 -6 -105 -13 -155 -15 l-90 -5 -25 38 c-14 21 -27 40 -31 43 -3 3
-16 25 -30 50 -13 25 -26 47 -29 50 -6 6 -40 76 -64 133 -58 135 -72 142 -62
30 4 -43 12 -123 17 -178 9 -100 19 -171 38 -255 5 -25 14 -65 20 -90 5 -25
17 -66 25 -90 9 -25 16 -54 16 -65 0 -12 4 -25 8 -30 4 -6 14 -28 21 -50 21
-62 104 -244 123 -270 4 -5 40 -59 80 -120 39 -60 74 -112 78 -115 3 -3 25
-30 50 -60 101 -124 310 -334 402 -402 20 -15 42 -34 50 -41 7 -7 29 -24 48
-37 19 -13 37 -27 40 -30 10 -10 155 -107 225 -149 103 -63 430 -221 455 -221
6 0 20 -5 33 -12 48 -24 57 -28 76 -28 11 0 23 -4 26 -10 3 -5 17 -10 30 -10
13 0 27 -4 30 -10 3 -5 16 -10 27 -10 12 0 38 -5 57 -11 30 -10 66 -21 66 -20
0 0 18 -4 40 -10 211 -51 395 -72 650 -72 276 -1 516 29 740 93 22 6 51 14 65
16 14 3 34 9 45 13 11 5 38 14 60 20 41 13 77 27 107 42 10 5 22 9 28 9 19 0
386 174 400 189 3 3 15 12 28 18 56 32 67 39 80 51 7 6 17 12 21 12 4 0 21 11
37 25 16 14 35 25 42 25 6 0 12 4 12 8 0 4 13 16 30 25 16 10 35 23 42 30 7 7
29 24 48 37 19 14 45 34 56 46 12 11 43 38 70 60 63 51 214 202 284 285 30 35
57 66 60 69 3 3 27 34 53 70 27 36 53 72 60 80 13 16 86 127 129 195 35 56
179 349 202 410 41 112 84 243 96 290 6 28 16 59 20 70 5 11 11 36 14 55 3 19
10 60 16 90 30 161 52 381 52 530 0 86 -18 326 -31 415 -20 137 -46 259 -81
380 -6 22 -14 52 -17 68 -3 15 -9 30 -14 33 -5 3 -9 16 -9 29 0 13 -4 27 -10
30 -5 3 -10 14 -10 24 0 9 -9 36 -20 59 -11 22 -20 46 -20 52 0 5 -4 18 -10
28 -5 9 -23 49 -40 87 -51 116 -131 268 -182 342 -15 23 -28 46 -28 52 0 6 -4
11 -8 11 -5 0 -14 11 -20 24 -6 14 -18 33 -26 43 -8 10 -36 47 -63 83 -26 36
-50 67 -53 70 -3 3 -30 34 -60 70 -63 74 -225 238 -258 261 -12 9 -39 32 -60
50 -20 19 -53 45 -72 59 -19 13 -37 27 -40 30 -3 3 -27 20 -55 38 -27 17 -55
35 -61 39 -5 5 -19 13 -30 19 -10 6 -30 17 -44 25 -14 8 -27 16 -30 19 -8 9
-211 107 -250 121 -19 6 -39 16 -45 21 -5 4 -15 8 -22 8 -8 0 -33 9 -55 20
-23 11 -50 20 -59 20 -10 0 -20 4 -23 9 -3 5 -18 11 -33 14 -16 3 -46 11 -68
17 -123 35 -272 65 -410 81 -112 13 -420 19 -480 9z"/>
<path d="M1460 4645 c-100 -21 -192 -80 -226 -147 -41 -78 13 -197 89 -198 69
0 117 55 157 180 13 41 27 77 30 80 5 5 30 72 30 82 0 13 -28 13 -80 3z"/>
<path d="M2028 3258 c-52 -72 -71 -135 -71 -243 -1 -99 9 -131 49 -170 36 -35
62 -45 121 -45 46 0 64 5 88 24 29 23 30 28 29 98 0 58 -5 81 -24 113 -13 22
-27 42 -30 45 -5 5 -17 26 -44 75 -6 11 -14 22 -17 25 -4 3 -18 29 -33 58 -14
28 -31 52 -36 52 -5 0 -20 -15 -32 -32z"/>
</g>
</svg>
